<svg width="32" height="32" viewBox="0 0 32 32" fill="none" xmlns="http://www.w3.org/2000/svg">
  <defs>
    <linearGradient id="logoGradient" x1="0%" y1="0%" x2="100%" y2="100%">
      <stop offset="0%" style="stop-color:#6EE7FF;stop-opacity:1" />
      <stop offset="100%" style="stop-color:#8B5CF6;stop-opacity:1" />
    </linearGradient>
  </defs>
  
  <!-- Cloud symbol representing Nimbus -->
  <path d="M24 18c1.66 0 3-1.34 3-3 0-1.66-1.34-3-3-3-.34 0-.68.06-1 .14C22.18 10.16 20.24 9 18 9c-2.76 0-5.26 1.74-6.22 4.31C10.78 13.13 10 14.05 10 15.2c0 1.38 1.12 2.5 2.5 2.5h11.5z" fill="url(#logoGradient)"/>
  
  <!-- Computing/processing elements -->
  <rect x="8" y="20" width="3" height="2" rx="0.5" fill="url(#logoGradient)" opacity="0.8"/>
  <rect x="13" y="20" width="3" height="2" rx="0.5" fill="url(#logoGradient)" opacity="0.6"/>
  <rect x="18" y="20" width="3" height="2" rx="0.5" fill="url(#logoGradient)" opacity="0.8"/>
  <rect x="23" y="20" width="3" height="2" rx="0.5" fill="url(#logoGradient)" opacity="0.6"/>
  
  <rect x="10" y="24" width="3" height="2" rx="0.5" fill="url(#logoGradient)" opacity="0.7"/>
  <rect x="15" y="24" width="3" height="2" rx="0.5" fill="url(#logoGradient)" opacity="0.5"/>
  <rect x="20" y="24" width="3" height="2" rx="0.5" fill="url(#logoGradient)" opacity="0.7"/>
  
  <!-- Connection lines -->
  <line x1="16" y1="18" x2="16" y2="20" stroke="url(#logoGradient)" stroke-width="1" opacity="0.5"/>
  <line x1="12" y1="22" x2="20" y2="22" stroke="url(#logoGradient)" stroke-width="0.5" opacity="0.3"/>
</svg>
